<mxfile host="65bd71144e" modified="2020-10-29T14:42:30.127Z" agent="5.0 (X11; Linux x86_64) AppleWebKit/537.36 (KHTML, like Gecko) Code/1.50.1 Chrome/83.0.4103.122 Electron/9.2.1 Safari/537.36" etag="p62SFPDXct4OCEQ2dzSc" version="13.6.5" pages="2">
    <diagram id="gCBsYq_XRGC8f06_6Um1" name="Done">
        <mxGraphModel dx="2107" dy="725" grid="1" gridSize="10" guides="1" tooltips="1" connect="1" arrows="1" fold="1" page="1" pageScale="1" pageWidth="850" pageHeight="1100" math="0" shadow="0">
            <root>
                <mxCell id="0"/>
                <mxCell id="1" parent="0"/>
                <mxCell id="20" value="" style="edgeStyle=none;rounded=0;orthogonalLoop=1;jettySize=auto;html=1;endArrow=block;endFill=0;shape=link;" parent="1" source="2" target="19" edge="1">
                    <mxGeometry relative="1" as="geometry"/>
                </mxCell>
                <mxCell id="2" value="zapisy" style="shape=datastore;whiteSpace=wrap;html=1;fillColor=#bac8d3;strokeColor=#23445d;labelBackgroundColor=none;fontStyle=0" parent="1" vertex="1">
                    <mxGeometry x="140" y="70" width="60" height="60" as="geometry"/>
                </mxCell>
                <mxCell id="3" value="endpoints/zapisy.php" style="whiteSpace=wrap;html=1;fontStyle=0;strokeColor=#B20000;fillColor=#e51400;fontColor=#ffffff;" parent="1" vertex="1">
                    <mxGeometry x="-20" y="240" width="120" height="60" as="geometry"/>
                </mxCell>
                <mxCell id="12" value="first x zapisÅ¯" style="edgeStyle=none;rounded=0;orthogonalLoop=1;jettySize=auto;html=1;exitX=0.75;exitY=1;exitDx=0;exitDy=0;entryX=1;entryY=0;entryDx=0;entryDy=0;endArrow=block;endFill=0;" parent="1" source="3" target="5" edge="1">
                    <mxGeometry x="0.3165" y="32" relative="1" as="geometry">
                        <mxPoint as="offset"/>
                    </mxGeometry>
                </mxCell>
                <mxCell id="14" value="details about zapis" style="edgeStyle=none;rounded=0;orthogonalLoop=1;jettySize=auto;html=1;exitX=0.25;exitY=1;exitDx=0;exitDy=0;entryX=0;entryY=0;entryDx=0;entryDy=0;endArrow=block;endFill=0;" parent="1" source="3" target="5" edge="1">
                    <mxGeometry x="0.3362" y="-42" relative="1" as="geometry">
                        <mxPoint as="offset"/>
                    </mxGeometry>
                </mxCell>
                <mxCell id="5" value="zasedani.php" style="ellipse;whiteSpace=wrap;html=1;fontColor=#ffffff;fontStyle=0;strokeColor=#BD7000;fillColor=#f0a30a;" parent="1" vertex="1">
                    <mxGeometry x="-20" y="400" width="120" height="80" as="geometry"/>
                </mxCell>
                <mxCell id="7" value="passwordhash by username" style="edgeStyle=orthogonalEdgeStyle;rounded=0;orthogonalLoop=1;jettySize=auto;html=1;shape=flexArrow;endArrow=none;endFill=0;exitX=0.25;exitY=1;exitDx=0;exitDy=0;entryX=0.25;entryY=0;entryDx=0;entryDy=0;" parent="1" source="22" target="10" edge="1">
                    <mxGeometry x="0.4706" relative="1" as="geometry">
                        <mxPoint x="510" y="150" as="sourcePoint"/>
                        <Array as="points">
                            <mxPoint x="580" y="175"/>
                            <mxPoint x="480" y="175"/>
                        </Array>
                        <mxPoint as="offset"/>
                    </mxGeometry>
                </mxCell>
                <mxCell id="8" value="login" style="shape=datastore;whiteSpace=wrap;html=1;fillColor=#bac8d3;strokeColor=#23445d;labelBackgroundColor=none;fontStyle=0" parent="1" vertex="1">
                    <mxGeometry x="570" y="20" width="60" height="60" as="geometry"/>
                </mxCell>
                <mxCell id="9" value="username + password" style="edgeStyle=orthogonalEdgeStyle;rounded=0;orthogonalLoop=1;jettySize=auto;html=1;endArrow=block;endFill=0;endWidth=50;exitX=0.5;exitY=0;exitDx=0;exitDy=0;" parent="1" source="11" target="10" edge="1">
                    <mxGeometry relative="1" as="geometry"/>
                </mxCell>
                <mxCell id="10" value="login.php" style="whiteSpace=wrap;html=1;fontStyle=0;strokeColor=#B20000;fillColor=#e51400;fontColor=#ffffff;" parent="1" vertex="1">
                    <mxGeometry x="450" y="210" width="120" height="60" as="geometry"/>
                </mxCell>
                <mxCell id="11" value="login.php" style="ellipse;whiteSpace=wrap;html=1;fontColor=#ffffff;fontStyle=0;strokeColor=#BD7000;fillColor=#f0a30a;" parent="1" vertex="1">
                    <mxGeometry x="450" y="370" width="120" height="80" as="geometry"/>
                </mxCell>
                <mxCell id="13" value="from date x to dat y zapisy" style="edgeStyle=none;rounded=0;orthogonalLoop=1;jettySize=auto;html=1;endArrow=block;endFill=0;exitX=0.5;exitY=1;exitDx=0;exitDy=0;" parent="1" source="3" target="5" edge="1">
                    <mxGeometry relative="1" as="geometry"/>
                </mxCell>
                <mxCell id="21" value="" style="edgeStyle=none;rounded=0;orthogonalLoop=1;jettySize=auto;html=1;endArrow=block;endFill=0;shape=link;" parent="1" source="19" target="3" edge="1">
                    <mxGeometry relative="1" as="geometry"/>
                </mxCell>
                <mxCell id="19" value="dbio.php" style="rounded=1;whiteSpace=wrap;html=1;labelBackgroundColor=none;" parent="1" vertex="1">
                    <mxGeometry x="130" y="160" width="80" height="30" as="geometry"/>
                </mxCell>
                <mxCell id="23" style="edgeStyle=none;shape=link;rounded=0;orthogonalLoop=1;jettySize=auto;html=1;exitX=0.5;exitY=0;exitDx=0;exitDy=0;entryX=0.5;entryY=1;entryDx=0;entryDy=0;endArrow=block;endFill=0;" parent="1" source="22" target="8" edge="1">
                    <mxGeometry relative="1" as="geometry"/>
                </mxCell>
                <mxCell id="22" value="dbio.php" style="rounded=1;whiteSpace=wrap;html=1;labelBackgroundColor=none;" parent="1" vertex="1">
                    <mxGeometry x="560" y="110" width="80" height="30" as="geometry"/>
                </mxCell>
                <mxCell id="eRmU4PzDKnTMrLfUUxgi-31" style="edgeStyle=none;shape=link;rounded=0;orthogonalLoop=1;jettySize=auto;html=1;entryX=0.5;entryY=1;entryDx=0;entryDy=0;endArrow=block;endFill=0;" parent="1" source="eRmU4PzDKnTMrLfUUxgi-26" target="19" edge="1">
                    <mxGeometry relative="1" as="geometry"/>
                </mxCell>
                <mxCell id="eRmU4PzDKnTMrLfUUxgi-26" value="endpoints/zapisyw.php" style="whiteSpace=wrap;html=1;fontStyle=0;strokeColor=#B20000;fillColor=#e51400;fontColor=#ffffff;" parent="1" vertex="1">
                    <mxGeometry x="170" y="240" width="120" height="60" as="geometry"/>
                </mxCell>
                <mxCell id="eRmU4PzDKnTMrLfUUxgi-32" value="username + password" style="edgeStyle=orthogonalEdgeStyle;rounded=0;orthogonalLoop=1;jettySize=auto;html=1;endArrow=block;endFill=0;endWidth=50;exitX=0.5;exitY=0;exitDx=0;exitDy=0;" parent="1" source="eRmU4PzDKnTMrLfUUxgi-34" target="eRmU4PzDKnTMrLfUUxgi-33" edge="1">
                    <mxGeometry relative="1" as="geometry"/>
                </mxCell>
                <mxCell id="eRmU4PzDKnTMrLfUUxgi-35" value="&lt;span style=&quot;color: rgb(240 , 240 , 240) ; font-family: &amp;#34;helvetica&amp;#34; ; font-size: 11px ; font-style: normal ; font-weight: 400 ; letter-spacing: normal ; text-align: center ; text-indent: 0px ; text-transform: none ; word-spacing: 0px ; background-color: rgb(42 , 42 , 42) ; display: inline ; float: none&quot;&gt;passwordhash and username&lt;/span&gt;" style="edgeStyle=none;shape=link;rounded=0;orthogonalLoop=1;jettySize=auto;html=1;entryX=0.75;entryY=1;entryDx=0;entryDy=0;endArrow=none;endFill=0;strokeWidth=1;width=10;" parent="1" source="eRmU4PzDKnTMrLfUUxgi-33" target="22" edge="1">
                    <mxGeometry x="-0.5" y="-20" relative="1" as="geometry">
                        <Array as="points">
                            <mxPoint x="700" y="180"/>
                            <mxPoint x="620" y="180"/>
                        </Array>
                        <mxPoint x="20" y="20" as="offset"/>
                    </mxGeometry>
                </mxCell>
                <mxCell id="eRmU4PzDKnTMrLfUUxgi-33" value="signup.php" style="whiteSpace=wrap;html=1;fontStyle=0;strokeColor=#B20000;fillColor=#e51400;fontColor=#ffffff;" parent="1" vertex="1">
                    <mxGeometry x="640" y="220" width="120" height="50" as="geometry"/>
                </mxCell>
                <mxCell id="eRmU4PzDKnTMrLfUUxgi-34" value="signup.php" style="ellipse;whiteSpace=wrap;html=1;fontColor=#ffffff;fontStyle=0;strokeColor=#BD7000;fillColor=#f0a30a;" parent="1" vertex="1">
                    <mxGeometry x="640" y="370" width="120" height="80" as="geometry"/>
                </mxCell>
            </root>
        </mxGraphModel>
    </diagram>
    <diagram id="BFcMlPJTM3-elXpGvKZ7" name="Todo">
        <mxGraphModel dx="1604" dy="435" grid="1" gridSize="10" guides="1" tooltips="1" connect="1" arrows="1" fold="1" page="1" pageScale="1" pageWidth="850" pageHeight="1100" math="0" shadow="0">
            <root>
                <mxCell id="548_d5v-9mvYwWJYy3Z6-0"/>
                <mxCell id="548_d5v-9mvYwWJYy3Z6-1" parent="548_d5v-9mvYwWJYy3Z6-0"/>
                <mxCell id="Uri-4rihQNJyXTswdYJ5-0" value="" style="edgeStyle=none;rounded=0;orthogonalLoop=1;jettySize=auto;html=1;endArrow=block;endFill=0;shape=link;" parent="548_d5v-9mvYwWJYy3Z6-1" source="Uri-4rihQNJyXTswdYJ5-1" target="Uri-4rihQNJyXTswdYJ5-8" edge="1">
                    <mxGeometry relative="1" as="geometry"/>
                </mxCell>
                <mxCell id="mtu5KCItloR4Uzl4PEtM-4" style="edgeStyle=none;shape=link;rounded=0;orthogonalLoop=1;jettySize=auto;html=1;exitX=0.85;exitY=0.95;exitDx=0;exitDy=0;exitPerimeter=0;entryX=0;entryY=0;entryDx=0;entryDy=0;endArrow=block;endFill=0;strokeWidth=1;" parent="548_d5v-9mvYwWJYy3Z6-1" source="Uri-4rihQNJyXTswdYJ5-1" target="mtu5KCItloR4Uzl4PEtM-3" edge="1">
                    <mxGeometry relative="1" as="geometry"/>
                </mxCell>
                <mxCell id="Uri-4rihQNJyXTswdYJ5-1" value="clanky" style="shape=datastore;whiteSpace=wrap;html=1;fillColor=#bac8d3;strokeColor=#23445d;labelBackgroundColor=none;fontStyle=0" parent="548_d5v-9mvYwWJYy3Z6-1" vertex="1">
                    <mxGeometry x="140" y="70" width="60" height="60" as="geometry"/>
                </mxCell>
                <mxCell id="Uri-4rihQNJyXTswdYJ5-2" value="endpoints/clanky.php" style="whiteSpace=wrap;html=1;fontStyle=0;strokeColor=#B20000;fillColor=#e51400;fontColor=#ffffff;" parent="548_d5v-9mvYwWJYy3Z6-1" vertex="1">
                    <mxGeometry x="110" y="210" width="120" height="60" as="geometry"/>
                </mxCell>
                <mxCell id="Uri-4rihQNJyXTswdYJ5-3" value="first x clanku" style="edgeStyle=none;rounded=0;orthogonalLoop=1;jettySize=auto;html=1;exitX=0.75;exitY=1;exitDx=0;exitDy=0;entryX=1;entryY=0;entryDx=0;entryDy=0;endArrow=block;endFill=0;" parent="548_d5v-9mvYwWJYy3Z6-1" source="Uri-4rihQNJyXTswdYJ5-2" target="Uri-4rihQNJyXTswdYJ5-5" edge="1">
                    <mxGeometry x="0.3165" y="32" relative="1" as="geometry">
                        <mxPoint as="offset"/>
                    </mxGeometry>
                </mxCell>
                <mxCell id="Uri-4rihQNJyXTswdYJ5-4" value="details about clanek" style="edgeStyle=none;rounded=0;orthogonalLoop=1;jettySize=auto;html=1;exitX=0.25;exitY=1;exitDx=0;exitDy=0;entryX=0;entryY=0;entryDx=0;entryDy=0;endArrow=block;endFill=0;" parent="548_d5v-9mvYwWJYy3Z6-1" source="Uri-4rihQNJyXTswdYJ5-2" target="Uri-4rihQNJyXTswdYJ5-5" edge="1">
                    <mxGeometry x="0.3165" y="-32" relative="1" as="geometry">
                        <mxPoint as="offset"/>
                    </mxGeometry>
                </mxCell>
                <mxCell id="Uri-4rihQNJyXTswdYJ5-5" value="articles.php" style="ellipse;whiteSpace=wrap;html=1;fontColor=#ffffff;fontStyle=0;strokeColor=#BD7000;fillColor=#f0a30a;" parent="548_d5v-9mvYwWJYy3Z6-1" vertex="1">
                    <mxGeometry x="110" y="370" width="120" height="80" as="geometry"/>
                </mxCell>
                <mxCell id="Uri-4rihQNJyXTswdYJ5-6" value="from date x to dat y clanky" style="edgeStyle=none;rounded=0;orthogonalLoop=1;jettySize=auto;html=1;endArrow=block;endFill=0;exitX=0.5;exitY=1;exitDx=0;exitDy=0;" parent="548_d5v-9mvYwWJYy3Z6-1" source="Uri-4rihQNJyXTswdYJ5-2" target="Uri-4rihQNJyXTswdYJ5-5" edge="1">
                    <mxGeometry relative="1" as="geometry"/>
                </mxCell>
                <mxCell id="Uri-4rihQNJyXTswdYJ5-7" value="" style="edgeStyle=none;rounded=0;orthogonalLoop=1;jettySize=auto;html=1;endArrow=block;endFill=0;shape=link;" parent="548_d5v-9mvYwWJYy3Z6-1" source="Uri-4rihQNJyXTswdYJ5-8" target="Uri-4rihQNJyXTswdYJ5-2" edge="1">
                    <mxGeometry relative="1" as="geometry"/>
                </mxCell>
                <mxCell id="Uri-4rihQNJyXTswdYJ5-8" value="dbio.php" style="rounded=1;whiteSpace=wrap;html=1;labelBackgroundColor=none;" parent="548_d5v-9mvYwWJYy3Z6-1" vertex="1">
                    <mxGeometry x="130" y="160" width="80" height="30" as="geometry"/>
                </mxCell>
                <mxCell id="wK7CbBYcYomXnecR7JWW-0" value="zapisy" style="shape=datastore;whiteSpace=wrap;html=1;fillColor=#bac8d3;strokeColor=#23445d;labelBackgroundColor=none;fontStyle=0" parent="548_d5v-9mvYwWJYy3Z6-1" vertex="1">
                    <mxGeometry x="365" y="70" width="60" height="60" as="geometry"/>
                </mxCell>
                <mxCell id="mtu5KCItloR4Uzl4PEtM-0" value="login" style="shape=datastore;whiteSpace=wrap;html=1;fillColor=#bac8d3;strokeColor=#23445d;labelBackgroundColor=none;fontStyle=0" parent="548_d5v-9mvYwWJYy3Z6-1" vertex="1">
                    <mxGeometry x="500" y="70" width="60" height="60" as="geometry"/>
                </mxCell>
                <mxCell id="mtu5KCItloR4Uzl4PEtM-9" style="edgeStyle=none;shape=link;rounded=0;orthogonalLoop=1;jettySize=auto;html=1;exitX=0.75;exitY=0;exitDx=0;exitDy=0;entryX=0.75;entryY=1;entryDx=0;entryDy=0;endArrow=block;endFill=0;strokeWidth=1;" parent="548_d5v-9mvYwWJYy3Z6-1" source="mtu5KCItloR4Uzl4PEtM-1" target="mtu5KCItloR4Uzl4PEtM-3" edge="1">
                    <mxGeometry relative="1" as="geometry"/>
                </mxCell>
                <mxCell id="mtu5KCItloR4Uzl4PEtM-10" style="edgeStyle=none;shape=link;rounded=0;orthogonalLoop=1;jettySize=auto;html=1;exitX=0.25;exitY=0;exitDx=0;exitDy=0;entryX=0.25;entryY=1;entryDx=0;entryDy=0;endArrow=block;endFill=0;strokeWidth=1;" parent="548_d5v-9mvYwWJYy3Z6-1" source="mtu5KCItloR4Uzl4PEtM-1" target="mtu5KCItloR4Uzl4PEtM-3" edge="1">
                    <mxGeometry relative="1" as="geometry"/>
                </mxCell>
                <mxCell id="mtu5KCItloR4Uzl4PEtM-1" value="endpoints/search.php" style="whiteSpace=wrap;html=1;fontStyle=0;strokeColor=#B20000;fillColor=#e51400;fontColor=#ffffff;" parent="548_d5v-9mvYwWJYy3Z6-1" vertex="1">
                    <mxGeometry x="335" y="220" width="120" height="60" as="geometry"/>
                </mxCell>
                <mxCell id="mtu5KCItloR4Uzl4PEtM-2" value="" style="edgeStyle=none;rounded=0;orthogonalLoop=1;jettySize=auto;html=1;endArrow=block;endFill=0;shape=link;" parent="548_d5v-9mvYwWJYy3Z6-1" source="mtu5KCItloR4Uzl4PEtM-3" target="mtu5KCItloR4Uzl4PEtM-1" edge="1">
                    <mxGeometry relative="1" as="geometry"/>
                </mxCell>
                <mxCell id="mtu5KCItloR4Uzl4PEtM-5" style="edgeStyle=none;shape=link;rounded=0;orthogonalLoop=1;jettySize=auto;html=1;exitX=0.5;exitY=0;exitDx=0;exitDy=0;entryX=0.5;entryY=1;entryDx=0;entryDy=0;endArrow=block;endFill=0;strokeWidth=1;" parent="548_d5v-9mvYwWJYy3Z6-1" source="mtu5KCItloR4Uzl4PEtM-3" target="wK7CbBYcYomXnecR7JWW-0" edge="1">
                    <mxGeometry relative="1" as="geometry"/>
                </mxCell>
                <mxCell id="mtu5KCItloR4Uzl4PEtM-6" style="edgeStyle=none;shape=link;rounded=0;orthogonalLoop=1;jettySize=auto;html=1;exitX=1;exitY=0;exitDx=0;exitDy=0;entryX=0.5;entryY=1;entryDx=0;entryDy=0;endArrow=block;endFill=0;strokeWidth=1;" parent="548_d5v-9mvYwWJYy3Z6-1" source="mtu5KCItloR4Uzl4PEtM-3" target="mtu5KCItloR4Uzl4PEtM-0" edge="1">
                    <mxGeometry relative="1" as="geometry"/>
                </mxCell>
                <mxCell id="mtu5KCItloR4Uzl4PEtM-3" value="dbio.php" style="rounded=1;whiteSpace=wrap;html=1;labelBackgroundColor=none;" parent="548_d5v-9mvYwWJYy3Z6-1" vertex="1">
                    <mxGeometry x="355" y="170" width="80" height="30" as="geometry"/>
                </mxCell>
                <mxCell id="mtu5KCItloR4Uzl4PEtM-8" style="edgeStyle=none;rounded=0;orthogonalLoop=1;jettySize=auto;html=1;endArrow=classic;endFill=1;strokeWidth=1;" parent="548_d5v-9mvYwWJYy3Z6-1" source="mtu5KCItloR4Uzl4PEtM-1" target="mtu5KCItloR4Uzl4PEtM-7" edge="1">
                    <mxGeometry relative="1" as="geometry"/>
                </mxCell>
                <mxCell id="mtu5KCItloR4Uzl4PEtM-7" value="search.php" style="ellipse;whiteSpace=wrap;html=1;fontColor=#ffffff;fontStyle=0;strokeColor=#BD7000;fillColor=#f0a30a;" parent="548_d5v-9mvYwWJYy3Z6-1" vertex="1">
                    <mxGeometry x="335" y="370" width="120" height="80" as="geometry"/>
                </mxCell>
                <UserObject label="&lt;font style=&quot;font-size: 51px&quot;&gt;?&lt;/font&gt;" placeholders="1" name="Variable" id="mtu5KCItloR4Uzl4PEtM-12">
                    <mxCell style="text;html=1;strokeColor=none;fillColor=none;align=center;verticalAlign=middle;whiteSpace=wrap;overflow=hidden;labelBackgroundColor=none;" parent="548_d5v-9mvYwWJYy3Z6-1" vertex="1">
                        <mxGeometry x="400" y="100" width="170" height="100" as="geometry"/>
                    </mxCell>
                </UserObject>
                <mxCell id="677HY8mZyfZpmxLQyFWd-0" value="" style="edgeStyle=none;rounded=0;orthogonalLoop=1;jettySize=auto;html=1;endArrow=block;endFill=0;shape=link;exitX=0;exitY=0.5;exitDx=0;exitDy=0;width=13;" parent="548_d5v-9mvYwWJYy3Z6-1" source="Uri-4rihQNJyXTswdYJ5-1" target="677HY8mZyfZpmxLQyFWd-7" edge="1">
                    <mxGeometry relative="1" as="geometry">
                        <mxPoint x="10" y="120.00000000000011" as="sourcePoint"/>
                        <Array as="points">
                            <mxPoint x="-210" y="100"/>
                        </Array>
                    </mxGeometry>
                </mxCell>
                <mxCell id="677HY8mZyfZpmxLQyFWd-1" value="index.php" style="whiteSpace=wrap;html=1;fontStyle=0;strokeColor=#B20000;fillColor=#e51400;fontColor=#ffffff;" parent="548_d5v-9mvYwWJYy3Z6-1" vertex="1">
                    <mxGeometry x="-410" y="190" width="120" height="60" as="geometry"/>
                </mxCell>
                <mxCell id="677HY8mZyfZpmxLQyFWd-4" value="index" style="ellipse;whiteSpace=wrap;html=1;fontColor=#ffffff;fontStyle=0;strokeColor=#BD7000;fillColor=#f0a30a;" parent="548_d5v-9mvYwWJYy3Z6-1" vertex="1">
                    <mxGeometry x="-410" y="350" width="120" height="80" as="geometry"/>
                </mxCell>
                <mxCell id="677HY8mZyfZpmxLQyFWd-5" value="vybrane clanky" style="edgeStyle=none;rounded=0;orthogonalLoop=1;jettySize=auto;html=1;endArrow=block;endFill=0;exitX=0.5;exitY=1;exitDx=0;exitDy=0;" parent="548_d5v-9mvYwWJYy3Z6-1" source="677HY8mZyfZpmxLQyFWd-1" target="677HY8mZyfZpmxLQyFWd-4" edge="1">
                    <mxGeometry relative="1" as="geometry"/>
                </mxCell>
                <mxCell id="677HY8mZyfZpmxLQyFWd-6" value="" style="edgeStyle=none;rounded=0;orthogonalLoop=1;jettySize=auto;html=1;endArrow=block;endFill=0;shape=link;" parent="548_d5v-9mvYwWJYy3Z6-1" source="677HY8mZyfZpmxLQyFWd-7" target="677HY8mZyfZpmxLQyFWd-1" edge="1">
                    <mxGeometry relative="1" as="geometry"/>
                </mxCell>
                <mxCell id="677HY8mZyfZpmxLQyFWd-7" value="dbio.php" style="rounded=1;whiteSpace=wrap;html=1;labelBackgroundColor=none;" parent="548_d5v-9mvYwWJYy3Z6-1" vertex="1">
                    <mxGeometry x="-390" y="140" width="80" height="30" as="geometry"/>
                </mxCell>
                <mxCell id="ZIACFmiKK7IMHxEsNIik-13" style="shape=link;rounded=0;orthogonalLoop=1;jettySize=auto;html=1;entryX=0;entryY=0.5;entryDx=0;entryDy=0;exitX=1;exitY=0.5;exitDx=0;exitDy=0;" edge="1" parent="548_d5v-9mvYwWJYy3Z6-1" source="ZIACFmiKK7IMHxEsNIik-17" target="ZIACFmiKK7IMHxEsNIik-12">
                    <mxGeometry relative="1" as="geometry">
                        <Array as="points"/>
                    </mxGeometry>
                </mxCell>
                <mxCell id="ZIACFmiKK7IMHxEsNIik-19" style="edgeStyle=none;rounded=0;orthogonalLoop=1;jettySize=auto;html=1;exitX=1;exitY=0.5;exitDx=0;exitDy=0;entryX=0;entryY=0.5;entryDx=0;entryDy=0;shape=flexArrow;endWidth=6;endSize=6.2;" edge="1" parent="548_d5v-9mvYwWJYy3Z6-1" source="ZIACFmiKK7IMHxEsNIik-6" target="ZIACFmiKK7IMHxEsNIik-17">
                    <mxGeometry relative="1" as="geometry"/>
                </mxCell>
                <mxCell id="ZIACFmiKK7IMHxEsNIik-6" value="endpoints/clankyw.php" style="whiteSpace=wrap;html=1;fontStyle=0;strokeColor=#B20000;fillColor=#e51400;fontColor=#ffffff;" vertex="1" parent="548_d5v-9mvYwWJYy3Z6-1">
                    <mxGeometry x="-270" y="180" width="120" height="60" as="geometry"/>
                </mxCell>
                <mxCell id="ZIACFmiKK7IMHxEsNIik-18" style="rounded=0;orthogonalLoop=1;jettySize=auto;html=1;exitX=1;exitY=0;exitDx=0;exitDy=0;entryX=0;entryY=1;entryDx=0;entryDy=0;" edge="1" parent="548_d5v-9mvYwWJYy3Z6-1" source="ZIACFmiKK7IMHxEsNIik-7" target="ZIACFmiKK7IMHxEsNIik-17">
                    <mxGeometry relative="1" as="geometry"/>
                </mxCell>
                <mxCell id="ZIACFmiKK7IMHxEsNIik-7" value="admin/clanky.php" style="ellipse;whiteSpace=wrap;html=1;fontColor=#ffffff;fontStyle=0;strokeColor=#BD7000;fillColor=#f0a30a;" vertex="1" parent="548_d5v-9mvYwWJYy3Z6-1">
                    <mxGeometry x="-270" y="370" width="120" height="80" as="geometry"/>
                </mxCell>
                <mxCell id="ZIACFmiKK7IMHxEsNIik-8" value="&lt;br&gt;" style="edgeStyle=none;rounded=0;orthogonalLoop=1;jettySize=auto;html=1;endArrow=block;endFill=0;entryX=0.5;entryY=1;entryDx=0;entryDy=0;" edge="1" parent="548_d5v-9mvYwWJYy3Z6-1" source="ZIACFmiKK7IMHxEsNIik-7" target="ZIACFmiKK7IMHxEsNIik-6">
                    <mxGeometry relative="1" as="geometry"/>
                </mxCell>
                <mxCell id="ZIACFmiKK7IMHxEsNIik-9" value="" style="edgeStyle=none;rounded=0;orthogonalLoop=1;jettySize=auto;html=1;endArrow=block;endFill=0;shape=link;" edge="1" parent="548_d5v-9mvYwWJYy3Z6-1" source="ZIACFmiKK7IMHxEsNIik-10" target="ZIACFmiKK7IMHxEsNIik-6">
                    <mxGeometry relative="1" as="geometry"/>
                </mxCell>
                <mxCell id="ZIACFmiKK7IMHxEsNIik-11" style="edgeStyle=orthogonalEdgeStyle;rounded=0;orthogonalLoop=1;jettySize=auto;html=1;exitX=1;exitY=0.25;exitDx=0;exitDy=0;entryX=0.017;entryY=0.85;entryDx=0;entryDy=0;entryPerimeter=0;shape=link;" edge="1" parent="548_d5v-9mvYwWJYy3Z6-1" source="ZIACFmiKK7IMHxEsNIik-10" target="Uri-4rihQNJyXTswdYJ5-1">
                    <mxGeometry relative="1" as="geometry">
                        <Array as="points">
                            <mxPoint x="141" y="148"/>
                        </Array>
                    </mxGeometry>
                </mxCell>
                <mxCell id="ZIACFmiKK7IMHxEsNIik-10" value="dbio.php" style="rounded=1;whiteSpace=wrap;html=1;labelBackgroundColor=none;" vertex="1" parent="548_d5v-9mvYwWJYy3Z6-1">
                    <mxGeometry x="-250" y="140" width="80" height="30" as="geometry"/>
                </mxCell>
                <mxCell id="ZIACFmiKK7IMHxEsNIik-14" style="rounded=0;orthogonalLoop=1;jettySize=auto;html=1;exitX=0.25;exitY=1;exitDx=0;exitDy=0;entryX=0.008;entryY=0.338;entryDx=0;entryDy=0;entryPerimeter=0;edgeStyle=orthogonalEdgeStyle;" edge="1" parent="548_d5v-9mvYwWJYy3Z6-1" source="ZIACFmiKK7IMHxEsNIik-12" target="Uri-4rihQNJyXTswdYJ5-5">
                    <mxGeometry relative="1" as="geometry"/>
                </mxCell>
                <mxCell id="ZIACFmiKK7IMHxEsNIik-12" value="&lt;font color=&quot;#000000&quot;&gt;photos/&lt;/font&gt;" style="shape=ext;double=1;whiteSpace=wrap;html=1;aspect=fixed;gradientColor=#b3b3b3;fillColor=#f5f5f5;strokeColor=#666666;" vertex="1" parent="548_d5v-9mvYwWJYy3Z6-1">
                    <mxGeometry x="20" y="180" width="80" height="80" as="geometry"/>
                </mxCell>
                <mxCell id="ZIACFmiKK7IMHxEsNIik-17" value="endpoints/phto.php" style="rounded=0;whiteSpace=wrap;html=1;fillColor=#e51400;strokeColor=#B20000;fontColor=#ffffff;" vertex="1" parent="548_d5v-9mvYwWJYy3Z6-1">
                    <mxGeometry x="-120" y="190" width="110" height="60" as="geometry"/>
                </mxCell>
            </root>
        </mxGraphModel>
    </diagram>
</mxfile>